<?xml version="1.0" standalone="no"?>
<!DOCTYPE svg PUBLIC "-//W3C//DTD SVG 20010904//EN"
 "http://www.w3.org/TR/2001/REC-SVG-20010904/DTD/svg10.dtd">
<svg version="1.0" xmlns="http://www.w3.org/2000/svg"
 width="1024.000000pt" height="1024.000000pt" viewBox="0 0 1024.000000 1024.000000"
 preserveAspectRatio="xMidYMid meet">
<metadata>
Created by potrace 1.11, written by Peter Selinger 2001-2013
</metadata>
<g transform="translate(0.000000,1024.000000) scale(0.100000,-0.100000)"
fill="#000000" stroke="none">
<path d="M0 5120 l0 -5120 5120 0 5120 0 0 5120 0 5120 -5120 0 -5120 0 0
-5120z m5959 3526 c3 -2 40 -7 81 -10 246 -23 630 -121 901 -232 136 -55 329
-148 396 -191 29 -18 55 -33 58 -33 3 0 41 -26 83 -58 42 -32 111 -80 152
-107 94 -62 523 -489 593 -590 27 -39 80 -115 118 -170 187 -269 363 -705 443
-1097 76 -378 89 -491 87 -809 -1 -380 -21 -553 -96 -849 -55 -214 -250 -675
-362 -852 -12 -21 -23 -40 -23 -43 0 -13 -189 -298 -253 -380 -21 -27 -57 -75
-79 -105 -54 -72 -305 -327 -545 -554 -168 -159 -316 -277 -441 -351 -9 -5
-30 -19 -47 -31 -62 -43 -265 -159 -400 -230 -165 -86 -333 -159 -465 -203
-109 -35 -512 -126 -645 -145 -69 -9 -330 -11 -1140 -8 -577 3 -1431 4 -1898
3 -467 0 -877 3 -912 8 -52 8 -73 17 -110 46 -100 82 -108 132 -57 360 17 77
47 219 66 315 45 226 127 623 159 770 14 63 28 140 32 170 4 30 11 62 15 70 4
8 33 137 64 285 30 149 64 313 76 365 27 123 29 136 40 195 34 192 150 667
185 760 15 39 35 95 45 126 72 220 340 794 454 974 20 30 36 57 36 60 0 19
226 359 342 514 15 20 31 43 35 51 3 8 9 17 12 20 4 3 46 57 95 120 49 63 104
131 121 150 18 19 44 53 58 75 29 47 684 709 773 781 33 27 94 77 135 111 41
35 103 87 139 117 68 57 256 195 398 291 149 102 317 176 567 249 211 63 313
76 524 71 101 -3 187 -7 190 -9z"/>
<path d="M5490 8496 c-314 -57 -608 -182 -840 -356 -41 -31 -102 -75 -135 -97
-33 -23 -92 -67 -130 -99 -39 -33 -104 -86 -145 -119 -41 -33 -80 -64 -86 -70
-179 -158 -326 -302 -606 -595 -236 -248 -289 -309 -409 -476 -52 -71 -99
-136 -106 -144 -88 -110 -276 -400 -404 -625 -136 -239 -318 -628 -394 -845
-18 -52 -45 -126 -58 -165 -21 -59 -103 -365 -120 -445 -2 -14 -32 -156 -65
-315 -64 -306 -76 -361 -122 -570 -16 -71 -40 -186 -54 -255 -39 -197 -134
-656 -156 -755 -11 -49 -39 -180 -61 -290 -23 -110 -52 -252 -65 -315 -33
-160 -23 -192 66 -205 25 -3 911 -7 1970 -8 l1925 -2 120 23 c106 20 178 38
455 111 132 35 478 189 666 296 182 104 469 300 558 380 6 6 29 25 51 42 144
114 621 624 714 763 31 47 71 105 88 130 86 126 133 207 217 373 51 100 105
216 120 257 16 41 44 115 64 165 54 137 129 410 147 532 36 245 45 633 20 858
-52 476 -152 834 -343 1235 -61 127 -191 344 -222 370 -3 3 -31 41 -62 85 -31
44 -103 128 -160 187 -201 208 -307 299 -493 424 -391 262 -808 422 -1310 504
-168 27 -522 36 -635 16z m260 -671 c59 -5 174 -21 255 -36 28 -5 68 -11 90
-15 61 -9 119 -22 151 -35 16 -6 38 -13 49 -14 26 -4 145 -43 167 -56 10 -5
22 -9 27 -9 5 0 22 -5 38 -12 15 -6 33 -12 39 -13 6 -2 35 -14 65 -28 105 -49
148 -67 158 -67 6 0 11 -4 11 -9 0 -5 15 -15 33 -22 17 -7 58 -30 89 -51 31
-21 60 -38 63 -38 6 0 89 -57 199 -137 43 -31 399 -372 405 -388 2 -5 23 -33
47 -62 24 -28 44 -54 44 -58 0 -4 16 -26 35 -49 19 -24 35 -46 35 -51 0 -4 13
-24 30 -45 35 -44 143 -253 189 -365 18 -44 37 -84 41 -90 8 -11 63 -173 65
-190 0 -5 11 -43 23 -82 23 -75 71 -306 77 -378 27 -279 32 -424 21 -590 -14
-217 -26 -320 -51 -445 -8 -41 -17 -88 -20 -105 -24 -136 -120 -378 -215 -540
-16 -27 -34 -59 -40 -70 -14 -28 -38 -64 -87 -135 -24 -33 -43 -63 -43 -66 0
-10 -46 -71 -107 -140 -35 -40 -63 -76 -63 -81 0 -5 -32 -40 -70 -78 -39 -38
-70 -75 -70 -81 0 -27 -457 -432 -510 -452 -8 -3 -36 -23 -61 -44 -25 -21 -49
-38 -54 -38 -4 0 -23 -11 -41 -25 -18 -14 -35 -25 -39 -25 -3 0 -40 -22 -82
-50 -42 -27 -82 -50 -89 -50 -7 0 -15 -4 -18 -9 -5 -8 -125 -69 -143 -73 -8
-2 -153 -71 -185 -89 -10 -5 -25 -9 -33 -9 -8 0 -23 -4 -33 -10 -63 -36 -428
-138 -551 -154 -20 -3 -47 -8 -61 -11 -161 -36 -691 -42 -859 -10 -46 9 -100
18 -120 21 -113 14 -361 75 -386 94 -6 5 -37 18 -70 31 -33 12 -64 25 -70 29
-11 8 -109 62 -170 94 -22 12 -56 33 -75 47 -19 14 -42 29 -50 33 -42 19 -124
77 -190 134 -20 17 -41 32 -45 32 -4 0 -49 41 -100 91 -51 50 -106 99 -122
109 -16 9 -42 32 -57 51 -16 19 -80 88 -142 153 -63 65 -114 123 -114 129 0 5
-25 38 -56 73 -31 35 -52 64 -48 64 5 0 -2 7 -14 16 -12 8 -22 20 -22 26 0 5
-10 24 -22 41 -13 17 -27 39 -33 49 -5 9 -25 43 -44 75 -92 155 -173 350 -206
498 -10 45 -7 208 4 238 6 14 13 50 16 79 3 29 10 69 15 88 5 20 12 56 15 80
3 25 8 52 11 61 2 9 7 34 9 55 7 57 25 145 35 174 5 14 21 66 36 115 59 199
129 392 191 525 19 41 42 92 50 112 15 38 77 162 130 258 16 30 43 80 60 110
48 88 57 103 86 141 15 20 27 40 27 44 0 9 65 109 103 158 16 20 25 37 21 37
-4 0 4 12 18 28 14 15 27 32 29 37 7 18 73 106 119 159 25 28 54 62 63 76 9
14 34 50 54 79 32 47 581 621 601 629 4 1 65 59 136 127 71 69 133 125 138
125 5 0 30 17 56 38 26 20 58 43 71 51 13 7 39 21 57 31 134 76 265 121 419
144 35 5 583 -2 665 -9z"/>
<path d="M4986 6545 c-175 -26 -296 -64 -471 -151 -96 -47 -112 -56 -162 -91
-17 -13 -35 -23 -39 -23 -4 0 -33 -22 -63 -48 -31 -27 -60 -51 -66 -53 -17 -7
-215 -215 -215 -226 0 -5 -9 -18 -20 -28 -24 -21 -86 -112 -116 -170 -11 -22
-32 -60 -45 -85 -44 -80 -125 -316 -135 -390 -2 -19 -10 -53 -16 -75 -7 -25
-12 -120 -11 -255 0 -199 2 -223 27 -320 15 -58 28 -114 30 -125 14 -72 128
-332 172 -392 13 -17 24 -35 24 -38 0 -4 14 -24 30 -45 17 -21 30 -43 30 -48
0 -6 11 -19 25 -30 14 -11 25 -24 25 -29 0 -19 279 -278 320 -297 24 -11 57
-31 72 -43 7 -7 38 -25 68 -41 30 -16 77 -41 104 -56 27 -14 57 -26 66 -26 9
0 19 -3 23 -6 6 -6 120 -48 157 -58 200 -55 462 -75 645 -50 96 13 244 48 297
70 32 13 63 24 71 24 11 0 187 86 267 131 86 47 370 286 370 309 0 5 20 32 45
60 125 141 281 453 311 623 3 17 7 33 9 37 2 4 7 27 10 51 3 24 10 73 16 109
20 124 3 422 -32 555 -5 22 -14 57 -20 78 -24 96 -129 337 -165 378 -8 8 -14
21 -14 27 0 7 -4 12 -9 12 -5 0 -11 8 -15 18 -16 48 -83 130 -225 275 -69 70
-129 127 -134 127 -5 0 -27 15 -50 33 -23 19 -49 37 -57 41 -8 3 -28 15 -45
26 -65 41 -179 100 -195 100 -6 0 -18 4 -28 9 -82 44 -191 76 -337 101 -140
23 -385 26 -529 5z"/>
</g>
</svg>
