<?xml version="1.0" standalone="no"?>
<!DOCTYPE svg PUBLIC "-//W3C//DTD SVG 20010904//EN"
 "http://www.w3.org/TR/2001/REC-SVG-20010904/DTD/svg10.dtd">
<svg version="1.0" xmlns="http://www.w3.org/2000/svg"
 width="1024.000000pt" height="1024.000000pt" viewBox="0 0 1024.000000 1024.000000"
 preserveAspectRatio="xMidYMid meet">
<metadata>
Created by potrace 1.11, written by Peter Selinger 2001-2013
</metadata>
<g transform="translate(0.000000,1024.000000) scale(0.100000,-0.100000)"
fill="#000000" stroke="none">
<path d="M5543 8663 c9 -2 23 -2 30 0 6 3 -1 5 -18 5 -16 0 -22 -2 -12 -5z"/>
<path d="M5603 8663 c9 -2 25 -2 35 0 9 3 1 5 -18 5 -19 0 -27 -2 -17 -5z"/>
<path d="M5668 8663 c7 -3 16 -2 19 1 4 3 -2 6 -13 5 -11 0 -14 -3 -6 -6z"/>
<path d="M5773 8663 c9 -2 23 -2 30 0 6 3 -1 5 -18 5 -16 0 -22 -2 -12 -5z"/>
<path d="M5830 8664 c36 -8 100 -9 100 -2 0 5 -26 7 -57 7 -32 -1 -51 -3 -43
-5z"/>
<path d="M5478 8653 c6 -2 18 -2 25 0 6 3 1 5 -13 5 -14 0 -19 -2 -12 -5z"/>
<path d="M5968 8653 c12 -2 30 -2 40 0 9 3 -1 5 -23 4 -22 0 -30 -2 -17 -4z"/>
<path d="M5278 8603 c6 -2 18 -2 25 0 6 3 1 5 -13 5 -14 0 -19 -2 -12 -5z"/>
<path d="M6283 8603 c9 -2 23 -2 30 0 6 3 -1 5 -18 5 -16 0 -22 -2 -12 -5z"/>
<path d="M5228 8593 c7 -3 16 -2 19 1 4 3 -2 6 -13 5 -11 0 -14 -3 -6 -6z"/>
<path d="M6350 8590 c14 -4 34 -8 45 -8 16 0 15 2 -5 8 -14 4 -34 8 -45 8 -16
0 -15 -2 5 -8z"/>
<path d="M5168 8573 c7 -3 16 -2 19 1 4 3 -2 6 -13 5 -11 0 -14 -3 -6 -6z"/>
<path d="M6438 8573 c7 -3 16 -2 19 1 4 3 -2 6 -13 5 -11 0 -14 -3 -6 -6z"/>
<path d="M6478 8563 c7 -3 16 -2 19 1 4 3 -2 6 -13 5 -11 0 -14 -3 -6 -6z"/>
<path d="M6518 8553 c7 -3 16 -2 19 1 4 3 -2 6 -13 5 -11 0 -14 -3 -6 -6z"/>
<path d="M5525 8495 c-300 -45 -644 -184 -857 -346 -32 -24 -90 -66 -129 -94
-61 -42 -192 -146 -209 -165 -3 -3 -25 -21 -50 -40 -126 -96 -259 -219 -495
-457 -369 -371 -540 -561 -650 -720 -27 -39 -100 -141 -161 -225 -61 -84 -142
-205 -181 -268 -38 -63 -86 -141 -106 -172 -21 -31 -37 -60 -37 -63 0 -3 -24
-48 -54 -100 -48 -82 -119 -224 -209 -415 -154 -328 -276 -721 -377 -1215 -21
-104 -49 -235 -61 -290 -11 -55 -34 -161 -49 -235 -16 -74 -45 -211 -64 -305
-20 -93 -70 -332 -112 -530 -41 -198 -103 -493 -136 -655 -34 -162 -62 -319
-63 -349 0 -48 3 -56 28 -75 28 -21 32 -21 745 -23 2145 -6 3179 -6 3197 -1
11 4 43 9 70 13 52 6 285 60 442 101 192 51 412 145 693 296 172 92 421 257
556 367 18 14 51 42 75 61 81 66 472 466 595 610 26 30 53 60 59 65 7 6 39 51
71 100 32 50 61 92 64 95 9 7 60 84 107 160 51 83 181 332 223 430 122 280
227 629 249 825 6 55 13 118 16 140 12 108 16 502 5 592 -17 151 -50 384 -60
423 -5 19 -21 89 -35 155 -33 148 -116 402 -185 567 -55 130 -130 281 -142
286 -5 2 -8 9 -8 16 0 15 -111 187 -159 246 -20 25 -50 65 -66 89 -56 83 -343
369 -475 473 -61 49 -191 138 -200 138 -4 0 -10 3 -12 8 -6 14 -176 112 -298
170 -181 88 -296 131 -550 210 -94 30 -336 78 -475 96 -172 22 -421 27 -530
11z m155 -661 c52 -3 115 -7 140 -9 25 -1 106 -15 180 -30 74 -14 149 -28 165
-31 82 -12 379 -110 474 -157 25 -12 47 -22 50 -22 10 -1 155 -75 196 -100 22
-14 47 -28 55 -31 8 -4 29 -17 46 -30 17 -13 34 -21 36 -19 3 3 15 -6 28 -20
13 -14 29 -25 35 -25 7 0 20 -9 30 -20 10 -11 23 -20 30 -20 6 0 21 -14 34
-30 12 -17 26 -28 31 -25 12 8 430 -408 430 -427 0 -9 11 -25 25 -36 14 -11
25 -24 25 -29 0 -6 9 -18 20 -28 11 -10 20 -24 20 -32 0 -7 7 -16 15 -19 8 -4
15 -11 15 -17 0 -5 11 -25 25 -43 14 -18 25 -35 25 -39 0 -3 17 -33 38 -68 20
-34 47 -82 58 -107 36 -75 59 -125 60 -130 0 -3 11 -27 23 -55 59 -131 152
-442 165 -555 2 -19 11 -75 20 -125 33 -193 46 -510 26 -670 -5 -44 -10 -98
-11 -120 -1 -22 -8 -80 -16 -130 -8 -49 -16 -102 -18 -117 -2 -15 -6 -35 -9
-45 -3 -10 -7 -29 -10 -43 -11 -64 -37 -184 -42 -192 -3 -4 -7 -16 -9 -27 -2
-10 -15 -44 -29 -75 -14 -31 -26 -59 -26 -62 0 -4 -9 -26 -35 -84 -2 -3 -6
-15 -10 -27 -4 -13 -11 -23 -14 -23 -9 0 -51 -82 -51 -99 0 -6 -4 -11 -9 -11
-5 0 -11 -8 -15 -17 -6 -20 -19 -41 -53 -90 -13 -17 -23 -36 -23 -41 0 -5 -9
-17 -20 -27 -11 -10 -20 -23 -20 -28 0 -5 -16 -29 -35 -53 -19 -23 -35 -46
-35 -51 0 -5 -16 -24 -35 -43 -19 -19 -35 -39 -35 -45 0 -6 -16 -26 -35 -45
-19 -19 -35 -39 -35 -45 0 -6 -32 -42 -70 -80 -39 -38 -70 -74 -70 -79 0 -12
-91 -106 -102 -106 -5 0 -38 -31 -74 -70 -37 -38 -72 -70 -79 -70 -8 0 -29
-18 -48 -40 -19 -22 -37 -40 -41 -40 -4 0 -33 -23 -64 -50 -31 -28 -60 -50
-65 -50 -6 0 -31 -17 -56 -37 -43 -36 -59 -47 -123 -80 -16 -8 -28 -19 -28
-24 0 -5 -6 -9 -14 -9 -7 0 -19 -6 -25 -14 -7 -8 -26 -22 -44 -31 -18 -9 -54
-29 -82 -46 -59 -35 -183 -96 -205 -101 -8 -2 -33 -15 -56 -30 -22 -15 -54
-30 -69 -34 -16 -4 -40 -13 -54 -20 -14 -8 -31 -14 -37 -14 -6 0 -33 -10 -59
-21 -27 -12 -78 -30 -114 -41 -57 -16 -105 -29 -286 -74 -16 -4 -37 -9 -45
-11 -8 -2 -40 -8 -70 -13 -30 -5 -93 -16 -140 -24 -119 -20 -588 -21 -730 -1
-172 24 -238 34 -283 46 -23 6 -62 14 -87 18 -66 11 -193 57 -290 104 -47 23
-87 42 -90 42 -5 1 -35 18 -72 40 -37 22 -134 79 -153 89 -11 6 -36 23 -56 39
-20 15 -40 27 -46 27 -5 0 -20 11 -33 25 -13 14 -29 25 -35 25 -6 0 -26 16
-45 35 -19 19 -40 35 -47 35 -7 0 -19 11 -25 25 -6 14 -15 25 -20 25 -4 0 -44
34 -87 75 -43 41 -82 75 -87 75 -10 0 -64 51 -64 61 0 4 -43 51 -95 103 -52
52 -95 99 -95 104 0 6 -13 22 -30 35 -16 14 -30 30 -30 35 0 5 -9 17 -20 27
-11 10 -20 22 -20 27 0 5 -14 21 -30 35 -17 13 -30 29 -30 33 0 5 -25 46 -56
91 -59 85 -130 210 -165 289 -11 25 -24 53 -29 62 -6 10 -10 22 -10 28 0 6 -9
29 -20 53 -37 81 -63 198 -64 287 0 81 8 172 19 202 2 7 6 31 9 53 2 22 16 99
31 170 15 72 28 141 30 155 3 20 32 141 50 210 6 24 95 283 104 305 23 54 52
126 72 180 12 33 36 85 52 115 17 30 29 55 27 55 -6 0 63 140 82 168 11 15 16
27 12 27 -3 0 -2 6 4 13 5 6 28 48 52 92 23 44 47 87 54 95 6 8 18 29 26 45 8
17 24 44 35 60 11 17 25 38 30 47 6 9 29 44 53 78 23 33 42 63 42 66 0 3 24
37 53 77 61 84 88 122 103 149 7 11 30 39 51 62 41 43 124 151 133 173 8 20
568 593 579 593 4 0 49 43 100 95 52 52 96 95 98 95 3 0 35 27 72 60 37 33 70
60 74 60 3 0 25 13 49 29 133 89 328 161 498 184 36 5 467 -2 580 -9z"/>
<path d="M5000 6545 c-41 -7 -90 -16 -110 -19 -68 -10 -256 -78 -365 -132
-141 -69 -165 -83 -219 -128 -24 -20 -49 -36 -55 -36 -6 0 -18 -11 -27 -25 -9
-14 -22 -25 -28 -25 -21 0 -282 -281 -271 -292 3 -3 -4 -13 -15 -23 -11 -10
-20 -22 -20 -28 0 -5 -13 -26 -28 -46 -29 -38 -92 -160 -92 -180 0 -6 -4 -11
-10 -11 -5 0 -9 -3 -8 -7 1 -5 -5 -24 -14 -44 -22 -51 -74 -230 -83 -289 -2
-14 -6 -38 -9 -55 -24 -129 -27 -238 -12 -426 8 -90 10 -101 19 -115 3 -6 9
-32 12 -57 8 -68 68 -242 120 -353 46 -96 141 -246 209 -329 46 -57 240 -245
253 -245 5 0 18 -9 28 -20 10 -11 23 -20 28 -20 5 0 28 -15 51 -33 23 -18 77
-50 121 -72 44 -22 83 -44 86 -48 3 -5 10 -9 15 -9 5 0 25 -7 44 -15 19 -9 40
-17 45 -19 70 -21 129 -38 170 -49 28 -7 66 -18 85 -24 74 -24 319 -34 510
-22 147 9 376 83 568 183 88 45 163 94 170 111 2 4 9 7 15 7 7 0 41 26 77 58
36 32 72 63 81 68 27 16 229 253 229 269 0 4 11 21 24 38 32 43 93 159 117
221 11 28 24 60 29 71 38 85 101 334 98 389 0 11 3 71 7 131 18 268 -63 596
-212 856 -42 72 -48 83 -63 100 -8 9 -31 41 -50 70 -35 54 -275 299 -292 299
-5 0 -31 18 -57 40 -26 22 -52 40 -58 40 -6 0 -16 6 -22 13 -6 8 -32 24 -58
37 -27 13 -59 31 -73 40 -14 9 -47 25 -75 34 -27 10 -63 24 -80 31 -164 69
-299 94 -545 100 -135 3 -205 1 -260 -10z"/>
<path d="M6690 8500 c8 -5 24 -10 34 -10 26 0 18 6 -19 14 -22 5 -26 4 -15 -4z"/>
<path d="M4935 8490 c-3 -6 1 -7 9 -4 18 7 21 14 7 14 -6 0 -13 -4 -16 -10z"/>
<path d="M4880 8469 c-19 -11 -26 -17 -15 -13 11 3 28 9 38 11 9 3 17 9 17 14
0 11 1 12 -40 -12z"/>
<path d="M6785 8470 c11 -5 27 -9 35 -9 9 0 8 4 -5 9 -11 5 -27 9 -35 9 -9 0
-8 -4 5 -9z"/>
<path d="M4715 8379 c-11 -17 1 -21 15 -4 8 9 8 15 2 15 -6 0 -14 -5 -17 -11z"/>
<path d="M7010 8388 c13 -14 70 -38 70 -29 0 5 -8 11 -17 14 -10 2 -27 8 -38
12 -11 5 -18 6 -15 3z"/>
<path d="M4679 8353 c-13 -16 -12 -17 4 -4 9 7 17 15 17 17 0 8 -8 3 -21 -13z"/>
<path d="M7190 8300 c0 -5 5 -10 11 -10 5 0 7 5 4 10 -3 6 -8 10 -11 10 -2 0
-4 -4 -4 -10z"/>
<path d="M4562 8276 c-41 -29 -48 -36 -36 -36 5 0 25 14 44 30 42 35 38 38 -8
6z"/>
<path d="M7221 8287 c2 -2 18 -11 34 -21 l30 -17 -24 20 c-13 12 -28 21 -34
21 -6 0 -8 -1 -6 -3z"/>
<path d="M4487 8223 c-4 -3 -7 -11 -7 -17 0 -6 5 -5 12 2 6 6 9 14 7 17 -3 3
-9 2 -12 -2z"/>
<path d="M7370 8206 c0 -2 8 -10 18 -17 15 -13 16 -12 3 4 -13 16 -21 21 -21
13z"/>
<path d="M4426 8175 c-11 -8 -17 -17 -14 -20 2 -3 13 4 23 15 21 23 18 25 -9
5z"/>
<path d="M7417 8169 c7 -7 15 -10 18 -7 3 3 -2 9 -12 12 -14 6 -15 5 -6 -5z"/>
<path d="M4380 8145 c-7 -9 -10 -18 -7 -21 3 -3 10 4 17 15 13 25 8 27 -10 6z"/>
<path d="M7474 8131 c21 -23 26 -26 26 -11 0 5 -10 15 -22 21 -23 12 -23 12
-4 -10z"/>
<path d="M4309 8083 c-13 -16 -12 -17 4 -4 9 7 17 15 17 17 0 8 -8 3 -21 -13z"/>
<path d="M7544 8083 c11 -13 24 -23 29 -23 6 0 20 -8 31 -17 21 -18 21 -18 2
5 -11 12 -24 22 -29 22 -6 0 -20 8 -31 18 -21 17 -21 17 -2 -5z"/>
<path d="M4254 8038 l-19 -23 23 19 c12 11 22 21 22 23 0 8 -8 2 -26 -19z"/>
<path d="M4160 7965 c-13 -14 -19 -25 -13 -25 12 0 48 38 41 45 -2 3 -15 -6
-28 -20z"/>
<path d="M7760 7919 c36 -36 121 -119 190 -184 117 -111 116 -109 -25 31 -82
83 -168 166 -190 184 -22 19 -11 5 25 -31z"/>
<path d="M4084 7898 l-19 -23 23 19 c21 18 27 26 19 26 -2 0 -12 -10 -23 -22z"/>
<path d="M4009 7837 c-14 -12 -32 -31 -39 -42 -8 -11 5 -2 28 20 38 36 47 45
40 45 -2 0 -15 -10 -29 -23z"/>
<path d="M3889 7733 c-13 -16 -12 -17 4 -4 9 7 17 15 17 17 0 8 -8 3 -21 -13z"/>
<path d="M3776 7615 c-47 -47 -82 -85 -78 -85 4 0 45 38 92 85 47 47 82 85 78
85 -3 0 -44 -38 -92 -85z"/>
<path d="M8140 7537 c0 -2 15 -16 33 -33 l32 -29 -29 33 c-28 30 -36 37 -36
29z"/>
<path d="M8210 7445 c7 -9 15 -13 17 -11 7 7 -7 26 -19 26 -6 0 -6 -6 2 -15z"/>
<path d="M8230 7416 c0 -2 8 -10 18 -17 15 -13 16 -12 3 4 -13 16 -21 21 -21
13z"/>
<path d="M8280 7346 c0 -2 7 -7 16 -10 8 -3 12 -2 9 4 -6 10 -25 14 -25 6z"/>
<path d="M8325 7290 c10 -11 20 -20 22 -20 2 0 -2 9 -9 20 -7 11 -17 20 -22
20 -5 0 -1 -9 9 -20z"/>
<path d="M8350 7250 c0 -5 5 -10 11 -10 5 0 7 5 4 10 -3 6 -8 10 -11 10 -2 0
-4 -4 -4 -10z"/>
<path d="M8416 7153 c15 -33 24 -41 24 -24 0 5 -9 19 -20 32 l-20 24 16 -32z"/>
<path d="M3309 7143 c-13 -16 -12 -17 4 -4 9 7 17 15 17 17 0 8 -8 3 -21 -13z"/>
<path d="M8455 7080 c9 -16 18 -30 21 -30 2 0 -2 14 -11 30 -9 17 -18 30 -21
30 -2 0 2 -13 11 -30z"/>
<path d="M3166 6971 c-21 -22 -36 -45 -33 -53 4 -10 6 -10 6 2 1 8 18 31 38
52 20 21 35 38 32 38 -3 0 -22 -18 -43 -39z"/>
<path d="M8552 6875 c6 -14 13 -24 14 -22 6 6 -9 47 -17 47 -5 0 -3 -11 3 -25z"/>
<path d="M3074 6858 l-19 -23 23 19 c21 18 27 26 19 26 -2 0 -12 -10 -23 -22z"/>
<path d="M3016 6782 l-19 -27 24 22 c12 12 21 24 18 27 -2 2 -13 -8 -23 -22z"/>
<path d="M8620 6726 c0 -8 4 -17 9 -20 5 -4 7 3 4 14 -6 23 -13 26 -13 6z"/>
<path d="M2955 6710 c-10 -11 -14 -20 -8 -20 5 0 18 9 28 20 10 11 14 20 8 20
-5 0 -18 -9 -28 -20z"/>
<path d="M8641 6674 c0 -11 3 -14 6 -6 3 7 2 16 -1 19 -3 4 -6 -2 -5 -13z"/>
<path d="M2910 6638 c-12 -22 -12 -22 6 -6 10 10 15 20 12 24 -4 3 -12 -5 -18
-18z"/>
<path d="M8650 6645 c0 -5 5 -17 10 -25 5 -8 10 -10 10 -5 0 6 -5 17 -10 25
-5 8 -10 11 -10 5z"/>
<path d="M2869 6583 c-13 -16 -12 -17 4 -4 9 7 17 15 17 17 0 8 -8 3 -21 -13z"/>
<path d="M2826 6522 l-19 -27 24 22 c12 12 21 24 18 27 -2 2 -13 -8 -23 -22z"/>
<path d="M2787 6473 c-4 -3 -7 -11 -7 -17 0 -6 5 -5 12 2 6 6 9 14 7 17 -3 3
-9 2 -12 -2z"/>
<path d="M8721 6455 c1 -19 18 -51 18 -35 0 8 -4 22 -9 30 -5 8 -9 11 -9 5z"/>
<path d="M2738 6403 c-9 -10 -21 -29 -28 -43 -12 -23 -12 -24 3 -11 10 7 17
18 17 24 0 6 7 19 17 29 9 10 14 18 11 18 -3 0 -12 -8 -20 -17z"/>
<path d="M8752 6350 c0 -14 2 -19 5 -12 2 6 2 18 0 25 -3 6 -5 1 -5 -13z"/>
<path d="M8762 6300 c0 -14 2 -19 5 -12 2 6 2 18 0 25 -3 6 -5 1 -5 -13z"/>
<path d="M8771 6234 c0 -11 3 -14 6 -6 3 7 2 16 -1 19 -3 4 -6 -2 -5 -13z"/>
<path d="M2621 6217 c-13 -21 -12 -21 5 -5 10 10 16 20 13 22 -3 3 -11 -5 -18
-17z"/>
<path d="M2596 6173 c-6 -14 -5 -15 5 -6 7 7 10 15 7 18 -3 3 -9 -2 -12 -12z"/>
<path d="M2515 6050 c-3 -5 -1 -10 4 -10 6 0 11 5 11 10 0 6 -2 10 -4 10 -3 0
-8 -4 -11 -10z"/>
<path d="M8822 6020 c0 -14 2 -19 5 -12 2 6 2 18 0 25 -3 6 -5 1 -5 -13z"/>
<path d="M2488 5993 l-17 -38 19 24 c17 19 27 51 17 51 -2 0 -10 -17 -19 -37z"/>
<path d="M8832 5960 c0 -14 2 -19 5 -12 2 6 2 18 0 25 -3 6 -5 1 -5 -13z"/>
<path d="M2455 5940 c-3 -5 -1 -10 4 -10 6 0 11 5 11 10 0 6 -2 10 -4 10 -3 0
-8 -4 -11 -10z"/>
<path d="M8842 5895 c0 -16 2 -22 5 -12 2 9 2 23 0 30 -3 6 -5 -1 -5 -18z"/>
<path d="M2416 5863 c-6 -14 -5 -15 5 -6 7 7 10 15 7 18 -3 3 -9 -2 -12 -12z"/>
<path d="M2391 5813 c-10 -26 -10 -27 4 -9 8 11 15 23 15 28 0 15 -7 8 -19
-19z"/>
<path d="M8852 5815 c0 -16 2 -22 5 -12 2 9 2 23 0 30 -3 6 -5 -1 -5 -18z"/>
<path d="M8862 5730 c0 -19 2 -27 5 -17 2 9 2 25 0 35 -3 9 -5 1 -5 -18z"/>
<path d="M8873 5650 c0 -25 2 -35 4 -22 2 12 2 32 0 45 -2 12 -4 2 -4 -23z"/>
<path d="M2315 5670 c-3 -5 -1 -10 4 -10 6 0 11 5 11 10 0 6 -2 10 -4 10 -3 0
-8 -4 -11 -10z"/>
<path d="M2300 5631 c-15 -30 -32 -77 -24 -68 9 9 44 87 39 87 -2 0 -9 -9 -15
-19z"/>
<path d="M2205 5430 c-3 -5 -1 -10 4 -10 6 0 11 5 11 10 0 6 -2 10 -4 10 -3 0
-8 -4 -11 -10z"/>
<path d="M8882 5390 c0 -19 2 -27 5 -17 2 9 2 25 0 35 -3 9 -5 1 -5 -18z"/>
<path d="M2170 5339 c0 -5 5 -7 10 -4 6 3 10 8 10 11 0 2 -4 4 -10 4 -5 0 -10
-5 -10 -11z"/>
<path d="M8876 5243 c-6 -14 -5 -15 5 -6 7 7 10 15 7 18 -3 3 -9 -2 -12 -12z"/>
<path d="M2085 5130 c-4 -12 -5 -24 -2 -27 3 -2 8 5 12 17 4 12 5 24 2 27 -3
2 -8 -5 -12 -17z"/>
<path d="M8873 5055 c0 -27 2 -38 4 -22 2 15 2 37 0 50 -2 12 -4 0 -4 -28z"/>
<path d="M2066 5075 c-3 -9 -6 -22 -5 -28 0 -7 5 -1 10 12 5 13 8 26 5 28 -2
2 -6 -3 -10 -12z"/>
<path d="M8863 4920 c0 -30 2 -43 4 -27 2 15 2 39 0 55 -2 15 -4 2 -4 -28z"/>
<path d="M1995 4878 c-4 -18 -9 -42 -11 -53 -4 -15 -3 -17 4 -5 11 17 25 90
18 90 -2 0 -7 -15 -11 -32z"/>
<path d="M8852 4835 c0 -16 2 -22 5 -12 2 9 2 23 0 30 -3 6 -5 -1 -5 -18z"/>
<path d="M1972 4780 c0 -14 2 -19 5 -12 2 6 2 18 0 25 -3 6 -5 1 -5 -13z"/>
<path d="M8842 4755 c0 -16 2 -22 5 -12 2 9 2 23 0 30 -3 6 -5 -1 -5 -18z"/>
<path d="M1961 4734 c0 -11 3 -14 6 -6 3 7 2 16 -1 19 -3 4 -6 -2 -5 -13z"/>
<path d="M8832 4700 c0 -14 2 -19 5 -12 2 6 2 18 0 25 -3 6 -5 1 -5 -13z"/>
<path d="M1902 4510 c0 -14 2 -19 5 -12 2 6 2 18 0 25 -3 6 -5 1 -5 -13z"/>
<path d="M8772 4470 c0 -14 2 -19 5 -12 2 6 2 18 0 25 -3 6 -5 1 -5 -13z"/>
<path d="M1893 4465 c-3 -9 -3 -18 -1 -21 3 -3 8 4 11 16 6 23 -1 27 -10 5z"/>
<path d="M8761 4424 c0 -11 3 -14 6 -6 3 7 2 16 -1 19 -3 4 -6 -2 -5 -13z"/>
<path d="M1882 4410 c0 -14 2 -19 5 -12 2 6 2 18 0 25 -3 6 -5 1 -5 -13z"/>
<path d="M8746 4374 c-4 -14 -5 -28 -3 -31 3 -2 8 8 11 23 4 14 5 28 3 31 -3
2 -8 -8 -11 -23z"/>
<path d="M1871 4365 c-1 -11 -4 -31 -6 -45 l-6 -25 11 25 c6 13 9 33 7 45 -4
19 -4 19 -6 0z"/>
<path d="M8725 4320 c-3 -5 -1 -10 4 -10 6 0 11 5 11 10 0 6 -2 10 -4 10 -3 0
-8 -4 -11 -10z"/>
<path d="M1856 4275 c-3 -9 -6 -24 -5 -33 0 -9 5 -4 10 12 9 32 6 48 -5 21z"/>
<path d="M8656 4155 c-3 -9 -6 -22 -5 -28 0 -7 5 -1 10 12 5 13 8 26 5 28 -2
2 -6 -3 -10 -12z"/>
<path d="M1782 3930 c0 -14 2 -19 5 -12 2 6 2 18 0 25 -3 6 -5 1 -5 -13z"/>
<path d="M8547 3891 c-4 -17 -3 -21 5 -13 5 5 8 16 6 23 -3 8 -7 3 -11 -10z"/>
<path d="M1766 3859 c-4 -23 -5 -44 -2 -46 2 -2 7 14 11 37 4 23 5 43 2 46 -2
3 -7 -14 -11 -37z"/>
<path d="M8526 3845 c-9 -26 -7 -32 5 -12 6 10 9 21 6 23 -2 3 -7 -2 -11 -11z"/>
<path d="M1752 3780 c0 -14 2 -19 5 -12 2 6 2 18 0 25 -3 6 -5 1 -5 -13z"/>
<path d="M8445 3700 c-3 -5 -1 -10 4 -10 6 0 11 5 11 10 0 6 -2 10 -4 10 -3 0
-8 -4 -11 -10z"/>
<path d="M8329 3493 c-13 -16 -12 -17 4 -4 16 13 21 21 13 21 -2 0 -10 -8 -17
-17z"/>
<path d="M8307 3463 c-4 -3 -7 -11 -7 -17 0 -6 5 -5 12 2 6 6 9 14 7 17 -3 3
-9 2 -12 -2z"/>
<path d="M1673 3415 c-3 -9 -3 -18 -1 -21 3 -3 8 4 11 16 6 23 -1 27 -10 5z"/>
<path d="M8269 3403 c-13 -16 -12 -17 4 -4 16 13 21 21 13 21 -2 0 -10 -8 -17
-17z"/>
<path d="M8230 3345 c-7 -9 -11 -17 -9 -20 3 -2 10 5 17 15 14 24 10 26 -8 5z"/>
<path d="M1652 3320 c0 -14 2 -19 5 -12 2 6 2 18 0 25 -3 6 -5 1 -5 -13z"/>
<path d="M8195 3299 c-11 -17 1 -21 15 -4 8 9 8 15 2 15 -6 0 -14 -5 -17 -11z"/>
<path d="M1642 3250 c0 -14 2 -19 5 -12 2 6 2 18 0 25 -3 6 -5 1 -5 -13z"/>
<path d="M8099 3163 l-24 -28 28 24 c15 14 27 26 27 28 0 8 -8 1 -31 -24z"/>
<path d="M8029 3073 l-24 -28 28 24 c15 14 27 26 27 28 0 8 -8 1 -31 -24z"/>
<path d="M1582 2980 c0 -14 2 -19 5 -12 2 6 2 18 0 25 -3 6 -5 1 -5 -13z"/>
<path d="M1572 2930 c0 -14 2 -19 5 -12 2 6 2 18 0 25 -3 6 -5 1 -5 -13z"/>
<path d="M1562 2880 c0 -14 2 -19 5 -12 2 6 2 18 0 25 -3 6 -5 1 -5 -13z"/>
<path d="M7690 2728 l-123 -133 128 127 c71 70 127 130 124 133 -3 3 -61 -54
-129 -127z"/>
<path d="M1552 2825 c0 -16 2 -22 5 -12 2 9 2 23 0 30 -3 6 -5 -1 -5 -18z"/>
<path d="M1542 2760 c0 -14 2 -19 5 -12 2 6 2 18 0 25 -3 6 -5 1 -5 -13z"/>
<path d="M7460 2503 l-75 -78 80 75 c44 41 81 76 84 78 2 1 0 2 -5 2 -5 0 -43
-35 -84 -77z"/>
<path d="M1473 2465 c-3 -9 -3 -18 -1 -21 3 -3 8 4 11 16 6 23 -1 27 -10 5z"/>
<path d="M1462 2390 c0 -14 2 -19 5 -12 2 6 2 18 0 25 -3 6 -5 1 -5 -13z"/>
<path d="M7311 2367 c-13 -21 -12 -21 5 -5 10 10 16 20 13 22 -3 3 -11 -5 -18
-17z"/>
<path d="M1452 2340 c0 -14 2 -19 5 -12 2 6 2 18 0 25 -3 6 -5 1 -5 -13z"/>
<path d="M7255 2334 l-30 -26 33 18 c17 10 32 22 32 26 0 11 -1 10 -35 -18z"/>
<path d="M1442 2290 c0 -14 2 -19 5 -12 2 6 2 18 0 25 -3 6 -5 1 -5 -13z"/>
<path d="M1432 2240 c0 -14 2 -19 5 -12 2 6 2 18 0 25 -3 6 -5 1 -5 -13z"/>
<path d="M7129 2243 c-13 -16 -12 -17 4 -4 16 13 21 21 13 21 -2 0 -10 -8 -17
-17z"/>
<path d="M7090 2225 c-11 -13 -10 -14 4 -9 9 3 16 10 16 15 0 13 -6 11 -20 -6z"/>
<path d="M7000 2159 c0 -5 5 -7 10 -4 6 3 10 8 10 11 0 2 -4 4 -10 4 -5 0 -10
-5 -10 -11z"/>
<path d="M6965 2140 c-3 -6 1 -7 9 -4 18 7 21 14 7 14 -6 0 -13 -4 -16 -10z"/>
<path d="M6924 2114 c-18 -14 -18 -15 4 -4 12 6 22 13 22 15 0 8 -5 6 -26 -11z"/>
<path d="M6805 2040 c-3 -6 1 -7 9 -4 18 7 21 14 7 14 -6 0 -13 -4 -16 -10z"/>
<path d="M1371 1954 c0 -11 3 -14 6 -6 3 7 2 16 -1 19 -3 4 -6 -2 -5 -13z"/>
<path d="M6623 1946 c-23 -12 -42 -24 -43 -29 0 -9 76 29 85 43 3 5 5 9 3 9
-2 -1 -22 -11 -45 -23z"/>
<path d="M1361 1914 c0 -11 3 -14 6 -6 3 7 2 16 -1 19 -3 4 -6 -2 -5 -13z"/>
<path d="M1353 1820 c0 -30 2 -43 4 -27 2 15 2 39 0 55 -2 15 -4 2 -4 -28z"/>
<path d="M6286 1791 c-4 -5 3 -7 14 -4 23 6 26 13 6 13 -8 0 -17 -4 -20 -9z"/>
<path d="M1360 1751 c0 -6 4 -13 10 -16 6 -3 7 1 4 9 -7 18 -14 21 -14 7z"/>
<path d="M6148 1733 c7 -3 16 -2 19 1 4 3 -2 6 -13 5 -11 0 -14 -3 -6 -6z"/>
<path d="M6108 1723 c7 -3 16 -2 19 1 4 3 -2 6 -13 5 -11 0 -14 -3 -6 -6z"/>
<path d="M1380 1711 c0 -5 7 -12 16 -15 14 -5 15 -4 4 9 -14 17 -20 19 -20 6z"/>
<path d="M6040 1710 c-20 -6 -21 -8 -5 -8 11 0 29 3 40 8 25 11 -1 11 -35 0z"/>
<path d="M5978 1693 c6 -2 18 -2 25 0 6 3 1 5 -13 5 -14 0 -19 -2 -12 -5z"/>
<path d="M5928 1683 c6 -2 18 -2 25 0 6 3 1 5 -13 5 -14 0 -19 -2 -12 -5z"/>
<path d="M1450 1640 c0 -5 10 -15 23 -21 22 -12 22 -12 3 10 -21 23 -26 26
-26 11z"/>
<path d="M5728 1633 c6 -2 18 -2 25 0 6 3 1 5 -13 5 -14 0 -19 -2 -12 -5z"/>
<path d="M5668 1623 c6 -2 18 -2 25 0 6 3 1 5 -13 5 -14 0 -19 -2 -12 -5z"/>
<path d="M5618 1613 c6 -2 18 -2 25 0 6 3 1 5 -13 5 -14 0 -19 -2 -12 -5z"/>
<path d="M1518 1603 c7 -3 16 -2 19 1 4 3 -2 6 -13 5 -11 0 -14 -3 -6 -6z"/>
<path d="M5563 1603 c9 -2 23 -2 30 0 6 3 -1 5 -18 5 -16 0 -22 -2 -12 -5z"/>
<path d="M1613 1593 c31 -2 83 -2 115 0 31 2 5 3 -58 3 -63 0 -89 -1 -57 -3z"/>
<path d="M1943 1593 c20 -2 54 -2 75 0 20 2 3 4 -38 4 -41 0 -58 -2 -37 -4z"/>
<path d="M2318 1593 c145 -2 379 -2 520 0 141 1 23 2 -263 2 -286 0 -402 -1
-257 -2z"/>
<path d="M4383 1593 c9 -2 25 -2 35 0 9 3 1 5 -18 5 -19 0 -27 -2 -17 -5z"/>
<path d="M4770 1590 c8 -5 20 -10 25 -10 6 0 3 5 -5 10 -8 5 -19 10 -25 10 -5
0 -3 -5 5 -10z"/>
<path d="M5493 1593 c9 -2 25 -2 35 0 9 3 1 5 -18 5 -19 0 -27 -2 -17 -5z"/>
<path d="M3168 1583 c6 -2 18 -2 25 0 6 3 1 5 -13 5 -14 0 -19 -2 -12 -5z"/>
<path d="M3248 1583 c7 -3 16 -2 19 1 4 3 -2 6 -13 5 -11 0 -14 -3 -6 -6z"/>
<path d="M3343 1583 c15 -2 39 -2 55 0 15 2 2 4 -28 4 -30 0 -43 -2 -27 -4z"/>
<path d="M3578 1583 c12 -2 30 -2 40 0 9 3 -1 5 -23 4 -22 0 -30 -2 -17 -4z"/>
<path d="M3658 1583 c12 -2 30 -2 40 0 9 3 -1 5 -23 4 -22 0 -30 -2 -17 -4z"/>
<path d="M3838 1583 c7 -3 16 -2 19 1 4 3 -2 6 -13 5 -11 0 -14 -3 -6 -6z"/>
<path d="M4818 1583 c7 -3 16 -2 19 1 4 3 -2 6 -13 5 -11 0 -14 -3 -6 -6z"/>
<path d="M4938 1583 c12 -2 30 -2 40 0 9 3 -1 5 -23 4 -22 0 -30 -2 -17 -4z"/>
<path d="M5053 1583 c32 -2 81 -2 110 0 29 2 3 3 -58 3 -60 0 -84 -1 -52 -3z"/>
<path d="M5293 1583 c26 -2 67 -2 90 0 23 2 2 3 -48 3 -49 0 -68 -1 -42 -3z"/>
</g>
</svg>
